<svg xmlns="http://www.w3.org/2000/svg" viewBox="0 0 339 113">
<style>.dash-svg {fill: #273238;}</style>
<g>
<path class="dash-svg" d="M56,0H0V94l19,19H76V21Zm3,94H26l-8-8V20H51l8,9Z"/>
<path class="dash-svg" d="M147,1H90V94l18,17V67h41V94l17,17V21Zm3,46H108V20h32l10,9Z"/>
<polygon class="dash-svg" points="252 18 236 1 181 1 181 47 201 66 230 66 239 76 239 95 181 95 200 113 256 113 256 67 236 47 207 47 198 38 198 18 252 18"/>
<polygon class="dash-svg" points="270 5 270 93 288 111 288 67 322 67 322 93 339 111 339 20 322 4 322 47 288 47 288 21 270 5"/>
</g>
</svg>